<svg id="Layer_1" xmlns="http://www.w3.org/2000/svg" width="680" height="256"><path fill-rule="evenodd" clip-rule="evenodd" fill="#94C74D" d="M492.177 107.863c-2.163.045-4.325.088-6.48.131.053-2.241.185-4.482.136-6.72-.132-6.065 1.509-13.095-1.014-17.933-2.805-5.369-10.501-1.504-15.968-2.634-12.213-2.521-22.008-12.151-24.504-24.186-1.235-5.961-.289-8.833 6.687-9.044 15.122-.453 21.212 1.002 33.098 9.739 2.595-.494 2.125-2.81 2.523-4.496 4.85-20.502 19.376-32.193 40.554-32.541 2.241-.038 4.482 0 6.724.002 13.778.008 15.107 1.789 11.109 14.914-5.196 17.062-20.037 27.632-39.315 27.981-14.739.267-13.485-2.512-13.579 14.049-.062 10.247.013 20.492.029 30.738zm24.481-68.319c.766.205 1.427.865 1.359 1.618-5.815 5.512-14.079 8.106-19.072 15.357 18.415 1.896 31.491-4.257 38.43-17.681 5.826-11.263 4.723-13.238-7.625-12.87-4.435.131-8.951.527-13.249 1.547-11.567 2.739-20.312 12.102-21.269 22.321 7.31-3.189 14.744-10.508 21.426-10.292z"/><path fill="#FFFEF1" d="M489.413 107.26c-13.481 0-25.067-6.224-34.709 3.415-9.6 9.679-14.401 21.261-14.401 34.739 0 13.519 4.802 25.08 14.401 34.679 9.559 9.483 21.118 14.241 34.679 14.279 13.52 0 25.079-4.761 34.679-14.279 9.642-9.557 14.462-21.118 14.462-34.679 0-13.52-4.82-25.097-14.462-34.739-9.637-9.638-21.17-3.415-34.649-3.415zm20.728 58.853c-5.797 5.72-12.72 8.582-20.758 8.582-8.158 0-15.1-2.862-20.817-8.582-5.763-5.759-8.643-12.699-8.643-20.817 0-8.042 2.88-14.979 8.643-20.819 5.677-5.762 11.759-.394 19.958-.394 8.079 0 15.858-5.368 21.617.394 5.801 5.8 8.703 12.74 8.703 20.819 0 8.159-2.903 15.1-8.703 20.817z"/><path fill="none" d="M384.289 132.702c7.673 0 13.915-6.681 13.915-14.892 0-3.822-1.414-7.242-4.205-10.163-2.595-2.525-7.816-4.173-13.271-4.173h-11.751v29.16l8.73.068h6.582z"/><path fill="#FFFEF1" d="M336.284 128.516h-59.686v23.502h31.54c-4.496 8.492-14.544 17.774-29.321 17.774-9.188 0-17.09-3.286-23.487-9.775-6.488-6.486-9.778-14.411-9.778-23.558 0-9.143 3.291-17.07 9.782-23.563 6.439-6.529 14.34-9.84 23.483-9.84 8.962 0 16.864 3.315 23.491 9.851l.68.67 17.495-17.496-.691-.68c-6.382-6.266-20.065-16.732-40.423-16.965l-.071-.214h-.69c-15.979 0-29.768 5.76-40.984 17.119-11.31 11.403-17.042 25.236-17.042 41.117 0 16.025 5.736 29.837 17.042 41.048 11.171 11.269 24.961 16.98 40.984 16.98 15.88 0 29.693-5.71 41.05-16.975 12.565-12.475 18.182-28.661 16.695-48.108l-.069-.887zm79.873 13.53c4.843-6.842 7.298-14.244 7.298-21.998v-2.938c0-12.602-4.098-19.164-11.18-26.246-7.657-7.567-18.366-11.733-30.151-11.733h-37.701l.069 114.514h24.551v-47.517l30.856 47.517h29.943l-26.519-41.294c5.93-2.466 9.038-5 12.834-10.305zm-47.18-38.572h11.751c5.455 0 10.677 1.648 13.271 4.173 2.791 2.921 4.205 6.341 4.205 10.163 0 8.21-6.242 14.892-13.915 14.892h-6.582l-8.73-.068v-29.16zm269.387-19.683l-18.907 48.567-19.618-50.244-19.693 50.252-18.971-48.575h-25.054l44.053 112.201 19.41-52.767 19.856 52.739 44.04-112.173zM87.446 124.605H53.475V79.756H27.51v115.591h25.965V150.43h33.971v44.917h25.965V79.756H87.446z"/><path fill="#94C74D" d="M190.823 198.954l2.147-2.249c6.256-6.688 11.548-13.854 15.727-21.298 4.269-7.606 6.433-15.479 6.433-23.392 0-13.003-4.7-24.298-13.972-33.566-9.217-9.22-20.51-13.892-33.567-13.892-13.103 0-24.452 4.672-33.725 13.892-9.217 9.216-13.891 20.511-13.891 33.566v1.997h29.655v-1.997c0-9.815 8.023-17.803 17.882-17.803 9.861 0 17.885 7.987 17.885 17.803 0 3.23-1.746 7.539-5.181 12.81-3.603 5.514-8.342 11.478-14.094 17.719-11.409 12.382-27.281 26.25-41.417 36.189l-.567.402-5.324 17.801h95.761v-29.571h-32.107c2.939-2.706 5.595-5.5 8.355-8.411z"/></svg>